<svg id="_83_coworking_outline" xmlns="http://www.w3.org/2000/svg" xmlns:xlink="http://www.w3.org/1999/xlink" viewBox="0 0 500 500" data-imageid="coworking-60" imageName="Coworking" class="illustrations_image" style="width: 215px;"><defs><style>.cls-1_coworking-60{fill:url(#linear-gradient);}.cls-1_coworking-60,.cls-2_coworking-60,.cls-3_coworking-60,.cls-4_coworking-60,.cls-5_coworking-60,.cls-6_coworking-60,.cls-7_coworking-60,.cls-8_coworking-60,.cls-9_coworking-60,.cls-10_coworking-60,.cls-11_coworking-60,.cls-12_coworking-60,.cls-13_coworking-60,.cls-14_coworking-60,.cls-15_coworking-60,.cls-16_coworking-60,.cls-17_coworking-60,.cls-18_coworking-60,.cls-19_coworking-60,.cls-20_coworking-60,.cls-21_coworking-60,.cls-22_coworking-60,.cls-23_coworking-60,.cls-24_coworking-60,.cls-25_coworking-60,.cls-26_coworking-60,.cls-27_coworking-60,.cls-28_coworking-60{stroke-width:0px;}.cls-2_coworking-60{opacity:.18;}.cls-2_coworking-60,.cls-13_coworking-60,.cls-14_coworking-60,.cls-15_coworking-60,.cls-16_coworking-60,.cls-17_coworking-60{isolation:isolate;}.cls-2_coworking-60,.cls-28_coworking-60{fill:#68e1fd;}.cls-3_coworking-60{fill:url(#linear-gradient-11-coworking-60);}.cls-4_coworking-60{fill:url(#linear-gradient-12-coworking-60);}.cls-5_coworking-60{fill:url(#linear-gradient-13-coworking-60);}.cls-6_coworking-60{fill:url(#linear-gradient-10-coworking-60);}.cls-7_coworking-60{fill:url(#linear-gradient-17-coworking-60);}.cls-8_coworking-60{fill:url(#linear-gradient-16-coworking-60);}.cls-9_coworking-60{fill:url(#linear-gradient-19-coworking-60);}.cls-10_coworking-60{fill:url(#linear-gradient-15-coworking-60);}.cls-11_coworking-60{fill:url(#linear-gradient-21-coworking-60);}.cls-12_coworking-60{fill:url(#linear-gradient-14-coworking-60);}.cls-13_coworking-60{fill:url(#linear-gradient-18-coworking-60);}.cls-13_coworking-60,.cls-14_coworking-60,.cls-15_coworking-60,.cls-16_coworking-60,.cls-17_coworking-60{opacity:.69;}.cls-14_coworking-60{fill:url(#linear-gradient-20-coworking-60);}.cls-15_coworking-60{fill:url(#linear-gradient-5-coworking-60);}.cls-16_coworking-60{fill:url(#linear-gradient-4-coworking-60);}.cls-17_coworking-60{fill:url(#linear-gradient-2-coworking-60);}.cls-29_coworking-60{opacity:.4;}.cls-18_coworking-60{fill:url(#linear-gradient-3-coworking-60);}.cls-19_coworking-60{fill:url(#linear-gradient-8-coworking-60);}.cls-20_coworking-60{fill:url(#linear-gradient-9-coworking-60);}.cls-21_coworking-60{fill:url(#linear-gradient-7-coworking-60);}.cls-22_coworking-60{fill:url(#linear-gradient-6-coworking-60);}.cls-23_coworking-60{fill:#231f20;}.cls-24_coworking-60{fill:#dedee0;}.cls-25_coworking-60{fill:#fff;}.cls-26_coworking-60{fill:#ffaa71;}.cls-27_coworking-60{fill:#ffb4a3;}</style><linearGradient id="linear-gradient-coworking-60" x1="452.68" y1="2797.62" x2="460.38" y2="2529.61" gradientTransform="translate(-65.6 2996.55) scale(1 -1)" gradientUnits="userSpaceOnUse"><stop offset="0" stop-color="#000" stop-opacity="0"/><stop offset=".99" stop-color="#000"/></linearGradient><linearGradient id="linear-gradient-2-coworking-60" x1="271.17" y1="2672.61" x2="390.13" y2="2672.61" gradientTransform="translate(-31 2998.54) scale(1 -1)" gradientUnits="userSpaceOnUse"><stop offset=".02" stop-color="#fff" stop-opacity="0"/><stop offset=".58" stop-color="#fff" stop-opacity=".39"/><stop offset=".68" stop-color="#fff" stop-opacity=".68"/><stop offset="1" stop-color="#fff"/></linearGradient><linearGradient id="linear-gradient-3-coworking-60" x1="390.06" y1="2710.69" x2="181.98" y2="2666.99" xlink:href="#linear-gradient-coworking-60"/><linearGradient id="linear-gradient-4-coworking-60" x1="378.29" y1="2771.41" x2="428.37" y2="2731.6" xlink:href="#linear-gradient-2-coworking-60"/><linearGradient id="linear-gradient-5-coworking-60" x1="383.25" y1="2769.33" x2="426.16" y2="2735.22" xlink:href="#linear-gradient-2-coworking-60"/><linearGradient id="linear-gradient-6-coworking-60" x1="347.49" y1="2700.11" x2="349.2" y2="2677.09" gradientTransform="translate(-31 2998.54) scale(1 -1)" xlink:href="#linear-gradient-coworking-60"/><linearGradient id="linear-gradient-7-coworking-60" x1="286.23" y1="2711.54" x2="273.4" y2="2483.64" gradientTransform="translate(-31 2998.54) scale(1 -1)" xlink:href="#linear-gradient-coworking-60"/><linearGradient id="linear-gradient-8-coworking-60" x1="315.26" y1="2563.11" x2="189.3" y2="2649.88" xlink:href="#linear-gradient-coworking-60"/><linearGradient id="linear-gradient-9-coworking-60" x1="137" y1="2611.68" x2="268.28" y2="2611.68" xlink:href="#linear-gradient-coworking-60"/><linearGradient id="linear-gradient-10-coworking-60" x1="266.13" y1="2642.66" x2="229.09" y2="2461.36" xlink:href="#linear-gradient-coworking-60"/><linearGradient id="linear-gradient-11-coworking-60" x1="302.88" y1="2856.1" x2="298.57" y2="2847.47" xlink:href="#linear-gradient-coworking-60"/><linearGradient id="linear-gradient-12-coworking-60" x1="298.23" y1="2860.57" x2="301.37" y2="2865.81" xlink:href="#linear-gradient-coworking-60"/><linearGradient id="linear-gradient-13-coworking-60" x1="312.41" y1="2716.61" x2="287.22" y2="2632.17" xlink:href="#linear-gradient-coworking-60"/><linearGradient id="linear-gradient-14-coworking-60" x1="226.81" y1="2730.35" x2="77.99" y2="2796.59" xlink:href="#linear-gradient-coworking-60"/><linearGradient id="linear-gradient-15-coworking-60" x1="250.05" y1="2790.54" x2="258.91" y2="2918.6" xlink:href="#linear-gradient-coworking-60"/><linearGradient id="linear-gradient-16-coworking-60" x1="249.47" y1="2814.11" x2="215.87" y2="2820.18" xlink:href="#linear-gradient-coworking-60"/><linearGradient id="linear-gradient-17-coworking-60" x1="286.24" y1="2753.61" x2="328" y2="2749.43" gradientTransform="translate(-31 2998.54) scale(1 -1)" xlink:href="#linear-gradient-coworking-60"/><linearGradient id="linear-gradient-18-coworking-60" x1="274.61" y1="2781.91" x2="305.4" y2="2781.91" xlink:href="#linear-gradient-2-coworking-60"/><linearGradient id="linear-gradient-19-coworking-60" x1="283.04" y1="2788.32" x2="283.54" y2="2776.85" gradientTransform="translate(-31 2998.54) scale(1 -1)" xlink:href="#linear-gradient-coworking-60"/><linearGradient id="linear-gradient-20-coworking-60" x1="425.76" y1="2734.43" x2="415.58" y2="2732.78" gradientTransform="translate(-65.6 2996.55) scale(1 -1)" xlink:href="#linear-gradient-2-coworking-60"/><linearGradient id="linear-gradient-21-coworking-60" x1="415.75" y1="2754.96" x2="424.96" y2="2728.13" xlink:href="#linear-gradient-coworking-60"/></defs><g id="background_coworking-60"><path class="cls-2_coworking-60 targetColor" d="M443.4,320.41c-8.87,10.53-19.64,19.46-27.19,30.98-8.87,13.49-12.78,29.61-18.82,44.63-2.57,6.67-5.9,13.02-9.92,18.93-2.05,2.9-4.34,5.64-6.83,8.18-20.57,21.1-53.3,27.86-83.35,31.14-40.29,4.39-80.87,5.61-121.35,3.66-17.77-.85-33.97-3.74-50.76.75-16.39,4.37-33.95-3.5-47.18-12.75-17.62-12.32-32.64-28.92-40.92-48.77-8.27-19.85-9.37-43.06-.78-62.79,11.79-27.07,39.59-44.44,52-71.23,6.21-13.42,8.16-28.38,9.7-43.1,2.48-23.86,4.13-47.81,4.96-71.84.54-16.02.8-32.48,7.01-47.24,10.15-24.25,35.08-39.76,60.75-45.43,25.67-5.66,52.35-2.91,78.47.08,44.65,5.1,89.8,11.07,131.45,27.95l.97.39c3.31,1.35,6.68,2.83,9.11,5.45,4.14,4.42,4.67,11,5.96,16.92.21.96.44,1.9.7,2.83,7.47,27.33,33.69,45.39,50.67,68.45,30.48,41.32,28.47,103.51-4.66,142.79Z" style="fill: rgb(104, 225, 253);"/><path class="cls-28_coworking-60 targetColor" d="M397.39,109.1v286.92c-2.57,6.67-5.9,13.02-9.92,18.93-2.05,2.9-4.34,5.64-6.83,8.18V83.57l.97.39c3.31,1.35,6.68,2.83,9.11,5.45,4.14,4.42,4.67,11,5.96,16.92.21.93.44,1.83.7,2.77Z" style="fill: rgb(104, 225, 253);"/><path class="cls-1_coworking-60" d="M397.39,109.1v286.92c-2.57,6.67-5.9,13.02-9.92,18.93-2.05,2.9-4.34,5.64-6.83,8.18V83.57l.97.39c3.31,1.35,6.68,2.83,9.11,5.45,4.14,4.42,4.67,11,5.96,16.92.21.93.44,1.83.7,2.77Z"/><g class="cls-29_coworking-60"><path class="cls-28_coworking-60 targetColor" d="M166.07,78.27c.22-.69.66-1.28,1.26-1.69.72-.37,1.53-.55,2.34-.5.87-.08,1.72.23,2.34.85.45.54.68,1.69.68,3.33,0,2.94,0,5.68.09,8.22.09,2.54.08,3.63.08,3.3,0,1.41-.24,2.37-.72,2.86-.72.57-1.63.83-2.54.74-1.98,0-3.27-1.41-3.87-4.23-.21-.85-.37-1.48-.5-1.94-.6-2.29-2.07-4.27-4.09-5.51-2.27-1.45-4.92-2.2-7.61-2.13-4.93-.17-9.66,1.98-12.78,5.81-3.21,3.89-4.81,9.09-4.81,15.62s1.63,11.73,4.88,15.62c3.16,3.83,7.92,5.98,12.89,5.81,1.8,0,3.58-.26,5.31-.74,1.86-.54,3.64-1.31,5.3-2.28,1.16-.63,2.27-1.35,3.33-2.13,1.4-1.01,2.41-1.51,3.01-1.51.88-.02,1.73.31,2.36.92.63.58.98,1.41.96,2.27-.02.96-.4,1.89-1.06,2.59-1.16,1.19-2.49,2.22-3.93,3.05-2.35,1.58-4.91,2.82-7.61,3.67-2.61.79-5.33,1.19-8.06,1.18-7.41,0-13.53-2.62-18.35-7.85-4.82-5.23-7.24-11.93-7.24-20.09,0-8.06,2.44-14.76,7.33-20.1,4.68-5.25,11.42-8.18,18.44-8.01,2.04,0,4.07.25,6.05.72,2.23.54,4.4,1.26,6.51,2.17Z" style="fill: rgb(104, 225, 253);"/><path class="cls-28_coworking-60 targetColor" d="M200.17,83.26h-6.57c-1.32.11-2.65-.15-3.84-.74-.79-.59-1.22-1.56-1.11-2.54-.11-.95.25-1.9.97-2.54.63-.42,2.39-.63,5.28-.63h12.83c1.69,0,2.77.22,3.38.65.73.65,1.28,1.48,1.6,2.41l17.58,43.94h.77c1.15-.11,2.31.13,3.33.68.67.62,1.01,1.52.91,2.43.11.93-.2,1.86-.85,2.54-.99.56-2.14.79-3.27.65h-12.2c-2.28,0-3.74-.24-4.38-.7-.72-.63-1.09-1.58-.97-2.54-.09-.93.31-1.84,1.06-2.4.7-.47,2.03-.7,3.98-.7h4.18l-4.36-10.68h-22.84l-3.87,10.7h4.37c1.98,0,3.33.24,4.05.7.76.55,1.17,1.47,1.07,2.4.11.95-.25,1.9-.96,2.54-.64.47-2.06.7-4.23.7h-11.84c-1.92,0-3.19-.24-3.82-.7-.7-.65-1.05-1.59-.94-2.54-.1-.92.26-1.83.96-2.43.63-.45,1.84-.68,3.65-.68h.85l15.27-40.53ZM197.87,107.1h18.4l-9.64-23.84-8.77,23.84Z" style="fill: rgb(104, 225, 253);"/><path class="cls-28_coworking-60 targetColor" d="M262.06,123.79h1.76c.97-.09,1.94.18,2.74.74.62.62.93,1.49.85,2.36.05.88-.25,1.75-.85,2.4-.63.59-1.47.9-2.34.85h-22.13c-.86.06-1.71-.25-2.34-.85-.59-.65-.9-1.52-.85-2.4-.09-.88.22-1.76.85-2.39.89-.56,1.94-.81,3-.72h4.31v-40.53h-2.83c-2.28,0-3.74-.24-4.38-.7-.72-.64-1.08-1.58-.97-2.54-.05-.88.25-1.75.85-2.4.63-.6,1.48-.9,2.34-.85h39.76c.87-.06,1.72.28,2.32.92.57.77.85,1.72.79,2.68v11.61c.07.86-.22,1.71-.79,2.36-.63.57-1.47.85-2.32.79-.96.11-1.91-.26-2.54-.99-.45-.65-.68-2.14-.68-4.45v-6.43h-24.38v15.16h11.84v-1.18c0-2.18.2-3.65.63-4.41.47-.78,1.35-1.21,2.25-1.13.79-.07,1.57.24,2.09.85.5.82.73,1.79.65,2.75v11.42c.09,1.07-.11,2.15-.6,3.11-.53.62-1.33.93-2.14.85-.9.09-1.78-.34-2.25-1.11-.42-.74-.63-2.22-.63-4.41v-1.29h-11.84v19.91h7.83Z" style="fill: rgb(104, 225, 253);"/><path class="cls-28_coworking-60 targetColor" d="M298.45,130.11h-2.13c-.9.06-1.78-.25-2.45-.85-.61-.66-.91-1.54-.85-2.43-.12-.93.25-1.86.97-2.45.64-.43,2.12-.65,4.42-.65h2.89v-40.47h-2.89c-2.24,0-3.71-.24-4.38-.7-.75-.62-1.13-1.57-1.02-2.54-.07-.9.23-1.79.85-2.45.71-.58,1.62-.86,2.54-.79h39.18c.87-.06,1.72.28,2.32.92.57.77.85,1.72.79,2.68v10.61c.1,1.12-.13,2.25-.68,3.24-.62.67-1.52,1-2.43.9-.96.11-1.91-.26-2.54-.99-.47-.65-.7-2.14-.7-4.45v-6.43h-23.9v15.16h11.79v-2.39c-.11-1.17.12-2.34.65-3.38.54-.69,1.4-1.04,2.27-.95.86-.09,1.7.3,2.18,1.02.4.67.6,2.13.6,4.39v8.37c0,2.26-.21,3.69-.63,4.31-.53.69-1.38,1.05-2.24.95-.89.07-1.74-.36-2.2-1.13-.4-.72-.6-2.12-.6-4.18v-1.56h-11.81v19.91h23.93v-7.28c0-2.31.23-3.8.7-4.45.63-.73,1.58-1.1,2.54-.99.9-.1,1.8.25,2.4.92.47.61.7,1.78.7,3.49v11.33c.05.91-.25,1.8-.85,2.48-.61.59-1.44.9-2.29.85l-37.13-.02Z" style="fill: rgb(104, 225, 253);"/></g></g><g id="table_coworking-60"><polygon class="cls-25_coworking-60" points="438.9 350.41 211.13 350.02 171.58 349.95 190.83 334.47 281.22 261.78 386.65 259.91 438.9 350.41"/><rect class="cls-24_coworking-60" x="171.58" y="349.95" width="266.38" height="8.87"/></g><g id="paper_coworking-60"><polygon class="cls-28_coworking-60 targetColor" points="300.35 268 336.12 267.69 334.25 280.12 295.99 278.57 300.35 268" style="fill: rgb(104, 225, 253);"/><polygon class="cls-24_coworking-60" points="256.49 317.29 357.73 314.96 360.99 340.15 242.04 339.22 256.49 317.29"/><polygon class="cls-17_coworking-60" points="254.62 315.66 355.86 313.33 359.13 338.52 240.17 337.59 254.62 315.66"/></g><g id="laptop_coworking-60"><polygon class="cls-28_coworking-60 targetColor" points="403.61 210.46 371.26 306.87 263.03 308.74 273.09 293.27 275.78 289.15 305.88 288.63 365.66 287.59 393.34 207.97 403.61 210.46" style="fill: rgb(104, 225, 253);"/><path class="cls-18_coworking-60" d="M324.54,292.55l-10.7-.6c-.73-.1-1.46-.02-2.15.25-.67.43-1.24.99-1.69,1.64-1.7,1.83-3.97,3.02-6.44,3.38-2.45.37-4.94.44-7.4.22-2.68-.04-5.34-.39-7.94-1.04-1.76-.51-3.43-1.28-5.15-1.88-3.21-1.1-6.6-1.54-9.98-1.3l2.68-4.13,30.11-.52c.91.19,1.84.35,2.78.48,3.74.52,7.56.4,11.29.91,1.83.3,3.89.9,4.59,2.59Z"/><polygon class="cls-16_coworking-60" points="365.66 287.59 370.17 305.32 401.42 210.15 393.34 207.97 365.66 287.59"/><polygon class="cls-15_coworking-60" points="368 281.03 371.85 296.22 398.65 214.65 391.71 212.79 368 281.03"/><polygon class="cls-25_coworking-60" points="316.99 290.39 313.72 304.07 321.18 303.76 322.28 290.7 316.99 290.39"/><polygon class="cls-25_coworking-60" points="351.43 290.23 354.58 290.35 356.57 302.48 352.83 302.48 351.43 290.23"/><polygon class="cls-25_coworking-60" points="344.43 290.17 349.27 290.17 351.19 302.44 345.44 302.37 344.43 290.17"/><polygon class="cls-25_coworking-60" points="337.75 290.39 342.72 290.39 343.34 302.52 337.44 302.52 337.75 290.39"/><polygon class="cls-25_coworking-60" points="330.83 290.55 335.88 290.47 336.27 303.07 330.28 303.07 330.83 290.55"/><polygon class="cls-25_coworking-60" points="324.3 290.7 328.72 290.78 328.57 303.37 323.13 303.37 324.3 290.7"/><polygon class="cls-28_coworking-60 targetColor" points="371.41 306.1 263.09 308.64 263.09 311.28 371.41 308.74 371.41 306.1" style="fill: rgb(104, 225, 253);"/><polygon class="cls-22_coworking-60" points="371.41 306.1 263.09 308.64 263.09 311.28 371.41 308.74 371.41 306.1"/><polygon class="cls-21_coworking-60" points="271.43 296.07 233.87 299.33 243.67 291.87 275.78 289.15 271.43 296.07"/></g><g id="character_coworking-60"><rect class="cls-23_coworking-60" x="129.6" y="411.07" width="12.13" height="45.72"/><path class="cls-28_coworking-60 targetColor" d="M223.14,359.52s25.19,6.29,30.79,14.7-21.69,85.37-21.69,85.37l-38.49-1.4,11.19-65.8,18.2-32.87Z" style="fill: rgb(104, 225, 253);"/><path class="cls-19_coworking-60" d="M223.14,359.52s25.19,6.29,30.79,14.7-21.69,85.37-21.69,85.37l-38.49-1.4,11.19-65.8,18.2-32.87Z"/><path class="cls-23_coworking-60" d="M77.02,345.85c-3.88,4.8-5.47,11.13-5.61,17.31-.41,19.32,12.69,36.96,29.17,47.1,16.48,10.14,35.9,14.08,54.99,17.31,12.49,2.12,26.01,3.86,37.23-1.97,4.23-2.18,8.05-5.62,9.37-10.15,2.38-8.19-3.93-16.17-10.15-22-16.83-15.87-36.19-28.82-57.3-38.29-13.74-6.14-45.75-24.05-57.7-9.31Z"/><path class="cls-20_coworking-60" d="M77.02,345.85c-3.88,4.8-5.47,11.13-5.61,17.31-.41,19.32,12.69,36.96,29.17,47.1,16.48,10.14,35.9,14.08,54.99,17.31,12.49,2.12,26.01,3.86,37.23-1.97,4.23-2.18,8.05-5.62,9.37-10.15,2.38-8.19-3.93-16.17-10.15-22-16.83-15.87-36.19-28.82-57.3-38.29-13.74-6.14-45.75-24.05-57.7-9.31Z"/><path class="cls-28_coworking-60 targetColor" d="M297.29,454.27l-13.49,2.32-21.47,3.69-55.28-62.27s-88.65,7.46-101.7-18.67c-6.91-13.8-6.26-33.84-4.12-49.68,1.15-8.42,2.85-16.76,5.08-24.96,0,0,31.73,17.73,70.92,24.26,4.12.69,8.7,2.61,13.6,5.51l-19.25,15.48,39.55.07c39.58,35.84,86.16,104.25,86.16,104.25Z" style="fill: rgb(104, 225, 253);"/><path class="cls-6_coworking-60" d="M283.8,456.59l-21.46,3.7-55.28-62.28s-88.65,7.46-101.71-18.66c-6.9-13.8-6.25-33.84-4.11-49.68,6.09,6.77,38.42,40.61,74.09,38.02,44.28-3.22,86.46,53.31,108.47,88.9Z"/><path class="cls-23_coworking-60" d="M244.18,142.04c-.23,2.76-1.38,5.36-3.27,7.39-1.53,1.56-3.19,2.99-4.95,4.28-3.3,2.63-6.33,5.57-9.07,8.77,0-3.31,0-6.67.91-9.85.53-1.45.97-2.93,1.33-4.43.47-2.74-.29-5.59.24-8.33.38-1.6,1-3.13,1.84-4.54.73-1.33,1.59-2.72,2.98-3.32,1.24-.47,2.61-.41,3.8.19,3.67,1.69,6.42,5.79,6.18,9.84Z"/><path class="cls-3_coworking-60" d="M244.18,142.04c-.23,2.76-1.38,5.36-3.27,7.39-1.53,1.56-3.19,2.99-4.95,4.28-3.3,2.63-6.33,5.57-9.07,8.77,0-3.31,0-6.67.91-9.85.53-1.45.97-2.93,1.33-4.43.47-2.74-.29-5.59.24-8.33.38-1.6,1-3.13,1.84-4.54.73-1.33,1.59-2.72,2.98-3.32,1.24-.47,2.61-.41,3.8.19,3.67,1.69,6.42,5.79,6.18,9.84Z"/><path class="cls-23_coworking-60" d="M241.24,133.84c1.07-2.21,1.69-4.8.85-7.11-.08-.49-.55-.82-1.04-.73-.02,0-.04,0-.05.01-4.39.09-8.66,1.52-12.22,4.09,2.03,1.56,3.64,3.59,4.7,5.92.61,1.45.9,3.01.85,4.58,0,.33-.33,1.59-.05,1.74s1.24-.94,1.45-1.15c2.21-2.15,4.08-4.63,5.52-7.36Z"/><path class="cls-4_coworking-60" d="M241.24,133.84c1.07-2.21,1.69-4.8.85-7.11-.08-.49-.55-.82-1.04-.73-.02,0-.04,0-.05.01-4.39.09-8.66,1.52-12.22,4.09,2.03,1.56,3.64,3.59,4.7,5.92.61,1.45.9,3.01.85,4.58,0,.33-.33,1.59-.05,1.74s1.24-.94,1.45-1.15c2.21-2.15,4.08-4.63,5.52-7.36Z"/><path class="cls-26_coworking-60" d="M327.49,287.68s-1.63,3.65-3.19,3.03-11.2-4.66-11.2-4.66c-.98,1.26-2.24,2.27-3.69,2.94-1.57.78-3.27,1.26-5.02,1.41-6.22.62-23.63-2.49-23.63-2.49l-72.16,5.29-16.18-14.61,1.35-39.69.95-27.99,26.02,58.03s76.28,3.49,88.18,9.1c11.9,5.6,18.58,9.65,18.58,9.65Z"/><path class="cls-5_coworking-60" d="M309.41,288.98c-1.57.78-3.27,1.26-5.02,1.41-6.22.62-23.63-2.49-23.63-2.49l-72.16,5.29-16.18-14.61,1.35-39.69,15.76,35.17s76.28,3.5,88.18,9.1c4.77,2.24,8.7,4.24,11.7,5.82Z"/><path class="cls-28_coworking-60 targetColor" d="M195.64,211.85c.08.73.18,1.46.3,2.17,1.13,6.54,7.01,40.8,8.27,48.65,1.17,7.17-6.08,20.44-8.66,24.87-.63,1.07-1.2,2.18-1.69,3.31l-13.54,29.54c-8.43,18.35-29.7,26.95-48.51,19.6h0c-19.24-7.5-29.01-28.96-22.04-48.39,13.19-36.82,33.25-90.36,40.66-97.09,11.27-10.25,41.19-16.44,45.21,17.34Z" style="fill: rgb(104, 225, 253);"/><path class="cls-12_coworking-60" d="M193.18,201.41c-9.8-2.14-20.97,2.14-26.94,7.56-7.42,6.73-27.48,60.27-40.66,97.09-3.89,10.84-2.67,22.85,3.32,32.68-17.5-8.5-25.77-28.84-19.18-47.14,13.19-36.82,33.25-90.35,40.66-97.08,9.98-9.05,34.38-14.92,42.8,6.9Z"/><path class="cls-27_coworking-60" d="M198.41,189.47s-10.15,5.14-7.23,15.75c2.93,10.61-18.66-13.54-18.66-13.54,0,0-2.8-16.33,13.99-14.92,16.79,1.4,11.9,12.72,11.9,12.72Z"/><path class="cls-10_coworking-60" d="M173.81,193.2s3.27-6.41,5.92-7.81,8.05-1.63,8.39,3.15c.37,3.4,1.2,6.74,2.45,9.92,0,0,4.66-7.35,7.81-8.99,0,0-8.86-6.07-11.31-9.91-2.45-3.84-12.01,3.27-12.01,3.27,0,0-4.17,7.35-1.25,10.37Z"/><path class="cls-26_coworking-60" d="M232.8,148.81c-1.56,5.52-4.64,11.07-3.33,16.65.36,1.1.62,2.24.8,3.38.15,1.18-.38,2.35-1.36,3.02-.57.24-1.17.39-1.78.46-4.23.85-6.77,5.18-8.46,9.16-1.69,3.98-3.58,8.46-7.55,10.15-3.33,1.48-7.26.57-10.56-.98-5.57-2.7-10.31-6.84-13.72-12-1.87-2.61-3.19-5.56-3.88-8.7-.41-2.57-.43-5.19-.08-7.78.72-7.77,3.15-15.28,7.12-22,4-6.72,9.99-12.04,17.13-15.23,1.96-.9,4.06-1.47,6.21-1.69,4.28-.32,8.52,1.35,12.03,3.83,2.72,1.91,7.53,5.36,8.46,8.72,1.06,3.85.03,9.26-1.02,12.99Z"/><path class="cls-23_coworking-60" d="M221.92,136.03c-7.57,7.59-14.07,16.18-19.32,25.53-2.25,4.02-4.29,8.22-7.25,11.73-3.73,4.41-8.73,7.56-14.32,9.03-1.18.22-2.33.62-3.38,1.2-2.41,1.55-2.9,4.8-4.37,7.25-1.91,3.22-5.55,5.08-9.2,5.87-3.65.8-7.42.85-11.13,1.29-13.67,1.69-23.03,45.52-29.54,57.67.78-6.12-19.59-22.71-.92-53.47,1.69-2.8.85-6.63-.25-9.73-1.29-3.69-4.63-7.16-3.46-10.89.66-1.67,1.85-3.08,3.38-4.01,5.92-4.15,13.75-5.46,18.96-10.51-.31.96-1.86.85-2.44.06-.48-.9-.55-1.95-.21-2.91,1.31-5.44,5.08-9.98,9.2-13.72,4.12-3.74,8.82-6.9,12.83-10.81-2.79-1.08-3.75-4.84-2.63-7.61s3.69-4.68,6.31-6.11,5.46-2.54,7.75-4.46c2.54-2.13,4.23-5.08,6.55-7.5,3.62-3.81,8.55-6.06,13.37-8.15,2.93-1.39,6.02-2.41,9.2-3.04,3.6-.5,7.27-.21,10.75.85,9.31,2.68,16.92,9.21,24,15.74,1.64,1.5,3.27,3,4.89,4.53.85.85,1.8,1.83,1.62,3s-7.8.69-9.39,1.29c-4.27,1.58-7.84,4.7-10.99,7.9Z"/><path class="cls-8_coworking-60" d="M221.92,136.03c-7.57,7.59-14.07,16.18-19.32,25.53-2.25,4.02-4.29,8.22-7.25,11.73-3.73,4.41-8.73,7.56-14.32,9.03-1.18.22-2.33.62-3.38,1.2-2.41,1.55-2.9,4.8-4.37,7.25-1.91,3.22-5.55,5.08-9.2,5.87-3.65.8-7.42.85-11.13,1.29-13.67,1.69-23.03,45.52-29.54,57.67.78-6.12-19.59-22.71-.92-53.47,1.69-2.8.85-6.63-.25-9.73-1.29-3.69-4.63-7.16-3.46-10.89.66-1.67,1.85-3.08,3.38-4.01,5.92-4.15,13.75-5.46,18.96-10.51-.31.96-1.86.85-2.44.06-.48-.9-.55-1.95-.21-2.91,1.31-5.44,5.08-9.98,9.2-13.72,4.12-3.74,8.82-6.9,12.83-10.81-2.79-1.08-3.75-4.84-2.63-7.61s3.69-4.68,6.31-6.11,5.46-2.54,7.75-4.46c2.54-2.13,4.23-5.08,6.55-7.5,3.62-3.81,8.55-6.06,13.37-8.15,2.93-1.39,6.02-2.41,9.2-3.04,3.6-.5,7.27-.21,10.75.85,9.31,2.68,16.92,9.21,24,15.74,1.64,1.5,3.27,3,4.89,4.53.85.85,1.8,1.83,1.62,3s-7.8.69-9.39,1.29c-4.27,1.58-7.84,4.7-10.99,7.9Z"/><polygon class="cls-28_coworking-60 targetColor" points="245.77 238.22 245.53 218.86 273.05 218.62 266.76 272.27 250.2 272.51 244.6 254.31 245.77 238.22" style="fill: rgb(104, 225, 253);"/><polygon class="cls-7_coworking-60" points="245.77 238.22 245.53 218.86 273.05 218.62 266.76 272.27 250.2 272.51 244.6 254.31 245.77 238.22"/><path class="cls-26_coworking-60" d="M256.6,270.73c-21.57,17.19-43.72,33.61-66.46,49.24-8.98,6.18-18.66,12.44-29.54,12.89-3.38.14-6.89-.34-9.65-2.24-4.38-3-5.86-8.68-6.92-13.88-5.74-28.28-8.38-57.13-8.99-85.99-.14-6.51-.15-13.16,1.96-19.31,2.12-6.15,6.77-11.84,13.09-13.38,0,0,14.98-2.06,19.33,13.49s0,83.04,3.11,83.67,65-31.43,65-31.43c1.31,0,1.57-2.34,1.77-3.65.12-1.31.08-2.62-.13-3.92-.69-7.74,1.24-15.48,5.47-22,1.3,1.9,1.24,4.4,1.13,6.7l-.22,5.09c-.11.63.02,1.28.36,1.83.37.38.87.61,1.4.65,2.45.37,4.86-.69,7.15-1.63,4.82-2,9.79-3.63,14.86-4.87.78-.3,1.65-.26,2.39.13.71.68.9,1.74.47,2.63-.33.9-.94,1.69-1.22,2.61-.11.27-.11.57,0,.85.22.44.85.5,1.21.78.53.54.8,1.29.72,2.05l.06,1.9c.13,3.99.18,8.28-2.03,11.62-1.68,2.32-4.08,4.03-6.82,4.86-2.44.74-4.96,1.19-7.51,1.32Z"/><polygon class="cls-28_coworking-60 targetColor" points="244.06 220.1 274.68 220.1 274.68 216.68 272.36 216.21 271.89 212.79 246.07 213.11 245.14 216.52 243.9 217.15 244.06 220.1" style="fill: rgb(104, 225, 253);"/><polygon class="cls-13_coworking-60" points="243.76 220.28 274.4 220.28 274.4 216.85 272.06 216.39 271.6 212.97 245.78 213.27 244.85 216.7 243.61 217.32 243.76 220.28"/><polygon class="cls-28_coworking-60 targetColor" points="246.07 213.11 247.28 208.6 258.25 212.91 246.07 213.11" style="fill: rgb(104, 225, 253);"/><polygon class="cls-9_coworking-60" points="246.07 213.11 247.28 208.6 258.25 212.91 246.07 213.11"/></g><g id="plant_coworking-60"><path class="cls-28_coworking-60 targetColor" d="M340.74,252.22s3.27,19.75,4.36,20.84l17.26-.31s3.38-17.41,2.95-19.75l-5.13-1.86-19.44,1.08Z" style="fill: rgb(104, 225, 253);"/><path class="cls-14_coworking-60" d="M343.85,253.96s2.65,17.57,3.74,18.66l14.76.12s3.38-17.41,2.95-19.75l-5.13-1.86-16.33,2.83Z"/><path class="cls-28_coworking-60 targetColor" d="M362.35,272.74s3.38-17.41,2.95-19.75" style="fill: rgb(104, 225, 253);"/><path class="cls-28_coworking-60 targetColor" d="M338.84,245.94c-.3-.13-.55-.36-.69-.66-.21-.65.62-1.15,1.29-1.27,1.55-.26,3.14-.01,4.53.71-2.42-1.81-4.6-3.93-6.46-6.32,2.09.45,4.08,1.31,5.83,2.54,1.05-2.05,2.88-3.59,5.08-4.28,2.19-.67,4.49-.89,6.77-.64.76-.05,1.5.27,1.99.85.44.74,0,1.69-.41,2.41.59-1.42,1.99-2.34,3.53-2.3-.86,1.6-1.8,3.15-2.82,4.65,1.34-.97,3.11-1.04,4.76-1.07.25-.03.51.02.74.14.5.37.16,1.17-.25,1.64-1.69,1.99-4.08,3.54-4.99,5.99-.36,1.3-.65,2.61-.85,3.94-.06.36-.22.7-.47.97-.33.26-.72.41-1.13.43-2.72.44-6.29.85-8.4-1.27-2.37-2.52-5.09-4.7-8.06-6.46Z" style="fill: rgb(104, 225, 253);"/><path class="cls-11_coworking-60" d="M338.84,245.94c-.3-.13-.55-.36-.69-.66-.21-.65.62-1.15,1.29-1.27,1.55-.26,3.14-.01,4.53.71-2.42-1.81-4.6-3.93-6.46-6.32,2.09.45,4.08,1.31,5.83,2.54,1.05-2.05,2.88-3.59,5.08-4.28,2.19-.67,4.49-.89,6.77-.64.76-.05,1.5.27,1.99.85.44.74,0,1.69-.41,2.41.59-1.42,1.99-2.34,3.53-2.3-.86,1.6-1.8,3.15-2.82,4.65,1.34-.97,3.11-1.04,4.76-1.07.25-.03.51.02.74.14.5.37.16,1.17-.25,1.64-1.69,1.99-4.08,3.54-4.99,5.99-.36,1.3-.65,2.61-.85,3.94-.06.36-.22.7-.47.97-.33.26-.72.41-1.13.43-2.72.44-6.29.85-8.4-1.27-2.37-2.52-5.09-4.7-8.06-6.46Z"/></g></svg>